<!DOCTYPE svg PUBLIC "-//W3C//DTD SVG 1.1//EN" "http://www.w3.org/Graphics/SVG/1.1/DTD/svg11.dtd">

<!-- Uploaded to: SVG Repo, www.svgrepo.com, Transformed by: SVG Repo Mixer Tools -->
<svg fill="#000000" width="800px" height="800px" viewBox="-7.53 0 113.6248 113.6248" xmlns="http://www.w3.org/2000/svg" stroke="#000000" stroke-width="0.568124">

<g id="SVGRepo_bgCarrier" stroke-width="0"/>

<g id="SVGRepo_tracerCarrier" stroke-linecap="round" stroke-linejoin="round"/>

<g id="SVGRepo_iconCarrier">

<defs>

<style>.a{fill-rule:evenodd;}</style>

</defs>

<path class="a" d="M70.994,19.2045l-.0017-.0011L49.5938,6.8492a.5656.5656,0,0,0-.5973-.0193L27.5652,19.2034l.0006.0009L6.1835,31.5494a.5666.5666,0,0,0-.3334.5165V81.5594H5.853a.5635.5635,0,0,0,.2829.489L27.5675,94.4216l21.4313,12.3729a.5637.5637,0,0,0,.5618,0L70.9923,94.4216,92.376,82.076a.5669.5669,0,0,0,.3333-.5166V32.0659h-.0017a.5652.5652,0,0,0-.2817-.489L70.9945,19.2034ZM32.9547,25.6811l6.717,10.8673-3.111,3.28-3.1969-3.375a.5654.5654,0,0,0-.7988-.02l-.02.02L29.35,39.8289,26.238,36.5482l1.0452-1.691,0-.0009Zm3.3381,3.2534a7.6465,7.6465,0,0,1,2.63-2.5538,7.6047,7.6047,0,1,1,4.5326,14.1424Zm-11.996,8.6074H10.6787a2.4166,2.4166,0,0,1,2.4173-2.4137,2.4347,2.4347,0,0,1,.576.0669,2.3978,2.3978,0,0,1,.5372.2035.5665.5665,0,0,0,.8164-.3915,3.275,3.275,0,0,1,6.3615-.0365.5655.5655,0,0,0,.9757.2338,2.9161,2.9161,0,0,1,.972-.7072,2.9013,2.9013,0,0,1,2.7237.1944Zm.7931.8635,0,0,.5332-.8626L28.9409,41.04l.02.02a.5654.5654,0,0,0,.7988-.02l3.1949-3.3746L36.1511,41.04l.02.02a.5654.5654,0,0,0,.7988-.02l3.3165-3.4972,5.2155,8.438,2.3034,3.7267c-.0274-.0055-.0564-.0027-.084-.0076a4.0381,4.0381,0,0,0-.7458-.0675c-.004,0-.008-.0011-.012-.0011a4.1847,4.1847,0,0,0-1.2408.199c-.0752.0248-.1432.0576-.2145.0869a2.0413,2.0413,0,0,0-1.0316.815l-2.7306.0072a.5574.5574,0,0,0-.0941-.008h-10.83a2.5524,2.5524,0,0,0-1.8777.8416l.0011.0011a2.9165,2.9165,0,0,0,.0012,3.9277,2.7709,2.7709,0,0,0,.2939.2747,2.7331,2.7331,0,0,0-.2605.239l-.036.0357a2.9244,2.9244,0,0,0-.1131,3.797,2.73,2.73,0,0,0,.4117.4007c.0439.0353.0906.0649.1366.0973a2.575,2.575,0,0,0,.3586.212c.0317.0154.0583.0394.0906.0535l.0152,5.5818H7.9146L20.4077,45.9806Zm37.7309,1.3a2.883,2.883,0,0,1,.5383-.2786,2.98,2.98,0,0,1,1.7518-.1151,2.8829,2.8829,0,0,1,.6475.2452.5667.5667,0,0,0,.7531-.2225,1.2743,1.2743,0,0,0,.0859-.2617,3.9119,3.9119,0,0,1,7.5759.0454.5656.5656,0,0,0,.9757.2339,3.4472,3.4472,0,0,1,2.5792-1.1458,3.4566,3.4566,0,0,1,1.8244.5148,3.4975,3.4975,0,0,1,1.2852,1.4062.5645.5645,0,0,0,.9332.1148l.0006,0a2.9168,2.9168,0,0,1,4.267-.161l.0022.0023a2.8982,2.8982,0,0,1,.8484,1.9556H64.3436Zm-.2375,1.7032-3.1944,3.1965L56.188,41.4083l3.1975-4.9008Zm-7.0247.9641,3.4352,3.4312.0011-.0011a.5556.5556,0,0,0,.7875-.0012l3.4285-3.4309,5.9065,9.0534,3.26,4.9964-.2412.37-6.1344,9.4027h-6.68L49.9306,50.9992Zm24.543,23.82L73.72,56.4123l5.1843-7.9463L84.74,57.41l5.73,8.7831Zm-1.3486,0H67.339l5.707-8.7474ZM40.81,87.35l-.0011.0011a1.5059,1.5059,0,0,1-1.0647.3731l-.027-.0009H29.6183a1.6552,1.6552,0,0,1-1.1273-.3492,1.35,1.35,0,0,1-.398-.9576l0-.013v-.7617h9.8844a.5686.5686,0,0,0,0-1.1372H28.0933V83.909H28.091V83.9A1.6606,1.6606,0,0,1,28.73,82.5l10.8765.0581,11.69,1.9973.0289.0043a55.295,55.295,0,0,0,11.96.2985q.7612-.0787,1.5141-.1924c.1585-.0239.3141-.0564.4718-.0827.3411-.057.6825-.1133,1.0193-.1822.1908-.0391.3772-.0883.5663-.1314.3-.0681.6-.1341.8948-.2129.2015-.0537.3977-.1182.5968-.177.2764-.0817.5539-.1611.8253-.253.2041-.069.4022-.149.6032-.224.2588-.0966.5186-.1912.7719-.2981.202-.0852.3973-.1814.5954-.2733.2434-.113.4875-.2245.7247-.348.1964-.1022.3859-.2153.5778-.3249.2282-.13.4565-.26.6777-.4012.1887-.12.37-.2514.5538-.38.1507-.1057.3083-.201.4553-.3123a1.669,1.669,0,0,1,.1327.1749,1.4467,1.4467,0,0,1,.2151,1.0646,2.8216,2.8216,0,0,1-.6222,1.26,5.51,5.51,0,0,1-1.2537,1.1148c-2.9518,1.95-7.6445,2.8058-12.6417,2.9764A65.2594,65.2594,0,0,1,41.851,85.6719l0,.0008a.5653.5653,0,0,0-.7169.5483,1.5832,1.5832,0,0,1-.3248,1.1284ZM29.7068,59.1354a1.8039,1.8039,0,0,1,.0689-2.3185l.0069-.0079a1.5531,1.5531,0,0,1,.134-.12c.03-.025.0572-.0532.0887-.0759a1.463,1.463,0,0,1,.1522-.09c.0327-.018.0632-.04.0972-.0554a1.4079,1.4079,0,0,1,.1817-.0618c.0312-.0092.0605-.0233.0924-.03a1.3511,1.3511,0,0,1,.2926-.0326H41.09l0,1.247,0,.0013c0,.169-.0069.346-.0219.53-.0012.0149-.0036.0284-.0049.0432-.0129.1422-.0313.2743-.0544.3952a1.9184,1.9184,0,0,1-.2263.618,1.1509,1.1509,0,0,1-1.0079.4949l-9.1688,0A1.4716,1.4716,0,0,1,29.7068,59.1354Zm.0669-4.4a1.7619,1.7619,0,0,1-.4553-1.1985,1.8569,1.8569,0,0,1,.0317-.3431,1.7862,1.7862,0,0,1,.086-.3022l.0046-.0163a1.6914,1.6914,0,0,1,.333-.5369l.0011-.001.0011.001a1.4645,1.4645,0,0,1,.7485-.4408,1.3465,1.3465,0,0,1,.297-.0331H41.0876l.0017,3.3449H30.8214A1.4282,1.4282,0,0,1,29.7737,54.7357ZM48.6448,62.73h-3.212V58.9763h3.212ZM45.43,64.308a.5382.5382,0,0,0,.0031-.0612V63.863h3.212v.7991c0,.36.021.7061.0516,1.0467.0024.0266.0014.0527.0039.0792.0043.0442.0141.0846.0189.1285q.0439.402.1156.7865c.0042.0222.0058.0464.01.0686L45.9331,68.024A12.01,12.01,0,0,1,45.43,64.308Zm.6474-13.4025a3.0362,3.0362,0,0,1,.8995-.1454,2.64,2.64,0,0,1,.8966.1341,1.0561,1.0561,0,0,1,.7716.8365V57.843h-3.212V51.38c.0022-.0141.01-.0256.0114-.04.0062-.0785.0748-.1575.1867-.2316A1.91,1.91,0,0,1,46.0771,50.9055ZM30.0551,70.2486c.6436,2.1262,2.7053,2.3622,5.031,2.6209,3.3365.3714,7.298.8315,7.0868,8.9784l-2.4122-.4121c-.0141-.0024-.0276-.0007-.0415-.0021-.0172-.0016-.034-.0044-.0515-.0044l-.0392,0-.0019,0-8.081-.0432-2.4432-.0132a14.0615,14.0615,0,0,1-.7137-6.4111A11.86,11.86,0,0,1,30.0551,70.2486ZM73.02,80.4579c-.1655.1157-.3268.2374-.4971.3462-.2172.1387-.444.2631-.6686.3907-.1723.098-.34.2022-.5168.2938-.2343.1218-.4776.23-.7187.34-.1772.0815-.35.1695-.5309.2454-.2512.1056-.51.1973-.7676.2924-.18.0663-.3553.1391-.5376.2005-.2682.09-.5435.1672-.8172.2473-.179.0522-.3545.1111-.5356.1591-.2937.078-.5936.1427-.8923.21-.1666.0375-.33.0813-.4982.1156-.33.0674-.666.1219-1.001.1773-.1415.0234-.2807.0527-.4228.0741q-.7176.1078-1.4449.1829a54.2111,54.2111,0,0,1-11.6991-.2971l-5.68-.9705c.009-.213.0213-.4244.0256-.64q.011-.5583-.0006-1.0842a.5645.5645,0,1,0-1.1288.0221q.0111.5043.0006,1.04c-.0029.1456-.0135.3152-.02.47L43.3,82.0405c.308-9.3466-4.2548-9.8685-8.09-10.2952-2.2655-.2519-4.2248-.4718-4.2317-3.0732l-.0052-1.9008.0023-.0113c0-.0171-.0011-.0335-.0025-.05l-.0162-5.9086,1.277.0015v1.6825a.5667.5667,0,1,0,1.1333,0V60.8042l6.3136.0076v.0022c.0091,0,.0159-.0025.0249-.0025.0456,0,.1451-.003.1576-.0037l0-.0088a2.0673,2.0673,0,0,0,1.9123-1.0525,3.0183,3.0183,0,0,0,.3031-.8217c.0052-.021.0127-.04.0175-.0616.0029-.0108.0105-.0189.0128-.03l.0122-.0615.002-.01.0014-.0068a4.8608,4.8608,0,0,0,.0737-.5236l.0005-.0115c.0051-.058.0046-.1194.0081-.1784.0093-.15.02-.3017.02-.4405h-.0023l-.0028-5.7337L44.3,51.8613V64.2468l.0012.0363a13.8035,13.8035,0,0,0,4.0235,9.934,16.3429,16.3429,0,0,0,10.3272,4.972,9.3272,9.3272,0,0,0,4.5714-.777A4.19,4.19,0,0,0,65.67,75.898c.7462-.0133,1.4737-.0421,2.1425-.1023a6.186,6.186,0,0,1,4.1164.6418c.8826.6244,1.43,1.7665,1.6172,3.6418C73.3747,80.2114,73.1967,80.334,73.02,80.4579ZM62.7449,77.39a8.0693,8.0693,0,0,1-3.5609.6752l.3827-2.6155c.5343.0942,1.0757.1763,1.6228.24,1.093.128,2.2.1942,3.2741.2135A3.4643,3.4643,0,0,1,62.7449,77.39Zm-4.6923.5869a14.3911,14.3911,0,0,1-4.2333-1.227l1.4937-2.5446c.1094.0484.2084.1075.32.1539a17.2289,17.2289,0,0,0,2.8224.8668Zm-5.2393-1.7434A15.5473,15.5473,0,0,1,49.1974,73.49l2.191-1.9a11.9217,11.9217,0,0,0,2.9039,2.1241Zm-4.3691-3.5859a13.3266,13.3266,0,0,1-2.1333-3.5533l2.8137-1.21a9.1413,9.1413,0,0,0,1.3074,2.5915c.0662.0915.1513.1682.2207.2572Zm1.45-6.4542a10.1386,10.1386,0,0,1-.1159-1.5306V52.8991l8.217,13.2942H49.894ZM17.91,67.3266,6.9834,73.6275V67.3266Zm52.52,26.117L49.28,105.6544l-4.5192-2.6091,20.9219-12.08a.6215.6215,0,0,0-.623-1.0755l-21.5418,12.438-4.1335-2.3864,14.8231-8.5829a.6215.6215,0,1,0-.6231-1.0755l-15.442,8.9413L33.994,96.8294l11.3444-6.5583a.6215.6215,0,0,0-.623-1.0755L32.7513,96.1121l-4.1272-2.3828,3.8139-2.2209a.6214.6214,0,1,0-.6231-1.0754l-4.431,2.58L23.235,90.6179l1.67-.975a.6227.6227,0,1,0-.6281-1.0754L21.993,89.901,17.83,87.4977l6.7987-3.9252a.62.62,0,0,0-.618-1.0754L16.59,86.7816l-4.164-2.404,12.4284-7.143a.62.62,0,0,0-.6179-1.0755L11.1842,83.6607,7.015,81.2537,26.3939,70.063a.6215.6215,0,0,0-.623-1.0755L6.9834,79.8366V75.0593l13.412-7.7327h9.4507l.0033,1.2152a12.8858,12.8858,0,0,0-2.581,6.2779,15.1709,15.1709,0,0,0,.7428,6.8352,2.9452,2.9452,0,0,0-.7022.8034,2.8539,2.8539,0,0,0-.3467,1.4507H26.96v2.4948a.5881.5881,0,0,0,.0048.0743,2.4455,2.4455,0,0,0,.7694,1.7376,2.7434,2.7434,0,0,0,1.8841.6412h10.099a.548.548,0,0,0,.0715-.0045,2.5689,2.5689,0,0,0,1.8382-.7249l.0012.0009a2.2916,2.2916,0,0,0,.5754-1.1894,67.4884,67.4884,0,0,0,17.7953,1.8448c5.186-.1772,10.0868-1.0849,13.2307-3.1624A6.6363,6.6363,0,0,0,74.74,84.2719a3.9408,3.9408,0,0,0,.8569-1.7819,2.5478,2.5478,0,0,0-.388-1.8748,3.1011,3.1011,0,0,0-.5382-.5994c-.2191-2.2543-.9246-3.6737-2.0912-4.499-1.2-.849-2.8284-1.0284-4.8649-.8453a32.173,32.173,0,0,1-6.3972-.1058,20.1107,20.1107,0,0,1-5.2512-1.2514,10.804,10.804,0,0,1-4.7182-3.5028,8.028,8.028,0,0,1-1.1973-2.4849H60.9666l-5.28,3.0439a.62.62,0,1,0,.6179,1.0754l7.1539-4.1193h8.27l-8.0753,4.6752a.6215.6215,0,1,0,.6231,1.0755l9.9329-5.7507H82.407l-8.7252,5.1273a.6208.6208,0,1,0,.6281,1.071l10.4817-6.1594a.5746.5746,0,0,0,.0435-.0389h6.6738v-.0025c.0231,0,.0441-.0174.0671-.02v1.005L76.3469,77.1206a.6215.6215,0,0,0,.6231,1.0755l14.606-8.4513v4.792l-13.8415,8.04a.6215.6215,0,0,0,.623,1.0756L91.576,75.9742v5.2612ZM91.576,56.8126V65.838l-5.9025-9.0474-6.2958-9.6492a.5558.5558,0,0,0-.94-.01l-5.3865,8.2561-2.9867-4.5779-4.9821-7.6365h22.344v-.0014a.5655.5655,0,0,0,.56-.4879c.0122-.0859.0207-.1717.0267-.255l.0011-.0145c.0068-.0993.01-.19.01-.2716a4.0328,4.0328,0,0,0-1.184-2.8565l-.0009-.0008-.0011-.0012-.0011-.0011a4.0408,4.0408,0,0,0-5.3791-.3,4.6314,4.6314,0,0,0-1.3127-1.2214,4.6013,4.6013,0,0,0-5.1732.2293,5.0434,5.0434,0,0,0-9.3115.3045q-.1395-.0452-.2846-.08a3.961,3.961,0,0,0-3.1692.5507l-2.3479-3.5988a.5647.5647,0,0,0-.9473,0L49.2745,49.9376l-2.8124-4.55-2.355-3.81a8.7425,8.7425,0,1,0-8.4585-13.6848l-2.2137-3.5815a.5642.5642,0,0,0-.9618.0025l-5.8237,9.4219a3.9979,3.9979,0,0,0-3.775-.27,4.0572,4.0572,0,0,0-.6922.3949,4.408,4.408,0,0,0-8.0682.2843c-.0581-.0173-.1171-.0331-.1766-.0476a3.549,3.549,0,0,0-4.392,3.4478c0,.0986.0062.2109.0178.335.0091.099.0224.1942.0386.2855a.5669.5669,0,0,0,.5638.5094H23.5963l-4.1489,6.7124L6.9834,65.5532V32.39L28.1293,20.1814l.0017-.0012.0006.0012L49.2809,7.9706l21.1478,12.21-.0005.0009,21.1478,12.21Z"/>

<path class="a" d="M98.5581,28.6887a.5653.5653,0,0,0-.2818-.489L73.92,14.1371l-.0006.0011-.0017-.0011L49.5606.0749a.5642.5642,0,0,0-.5618,0L24.6713,14.12l-.0314.0171L.3226,28.1771A.5662.5662,0,0,0,0,28.6887V84.936H.0017a.5653.5653,0,0,0,.2817.489L24.64,99.488l0-.0012.0017.0012L48.9988,113.55a.5639.5639,0,0,0,.5618,0L73.8881,99.505l.0315-.017,24.3176-14.04a.5666.5666,0,0,0,.3226-.5117V28.6887ZM97.4265,56.8126v27.798L73.3532,98.51l-.0277.0173L49.28,112.41,25.2056,98.5108l.0006-.0008L1.1333,84.6106V29.0141L25.2062,15.115l.0278-.0173L49.28,1.2151,73.3538,15.1142l-.0006.0008L97.4265,29.0141Z"/>

<path class="a" d="M44.8211,75.1463a10.7766,10.7766,0,0,0-.4456-.9879,9.5216,9.5216,0,0,0-.5278-.9074.5654.5654,0,1,0-.9428.6242,8.4167,8.4167,0,0,1,.466.7968,9.5871,9.5871,0,0,1,.3969.8859.5654.5654,0,1,0,1.0533-.4116Z"/>

<path class="a" d="M45.3869,77.01a.5648.5648,0,0,0-1.1021.2478q.0885.3908.1619.8277c.0462.2778.0873.5689.1213.8725a.5655.5655,0,0,0,1.1242-.1241c-.036-.3189-.08-.631-.13-.9343S45.4527,77.3006,45.3869,77.01Z"/>

<path class="a" d="M34.793,69.19l-.1262-.024,0-.001-.1349-.0292-.0048-.0008a1.927,1.927,0,0,1-.8677-.3617l-.0023-.0023a1.01,1.01,0,0,1-.2486-.625.5649.5649,0,0,0-1.12.15,2.04,2.04,0,0,0,.5939,1.298,2.9,2.9,0,0,0,1.3791.6406l.0309.0077.1349.0292,0-.0012.0153.0031.1414.027A.565.565,0,1,0,34.793,69.19Z"/>

<path class="a" d="M41.6755,71.0151a7.8776,7.8776,0,0,0-.976-.5774.5661.5661,0,1,0-.5045,1.0136,6.6741,6.6741,0,0,1,1.595,1.101.5652.5652,0,0,0,.77-.8277A7.8588,7.8588,0,0,0,41.6755,71.0151Z"/>

<path class="a" d="M38.8088,69.769l-.1573-.0341-.0249-.0048-.1429-.028-.0439-.0068c-.36-.0667-.6747-.1191-.9542-.161v0c-.3135-.0471-.6026-.0854-.8694-.1182A.5663.5663,0,0,0,36.479,70.54c.2637.0326.5446.07.8382.1137v0l.0023,0c.305.0456.6131.096.9153.1519l.0318.0071.1411.0278.0046.0011.1573.034a.5661.5661,0,0,0,.2392-1.1066Z"/>

<path class="a" d="M32.8005,66.9286a.5666.5666,0,0,0,.5667-.5666V64.344a.5667.5667,0,0,0-1.1333,0v2.018A.5666.5666,0,0,0,32.8005,66.9286Z"/>

<path class="a" d="M68.2432,24.5462a4.504,4.504,0,0,0-8.13,0,4.1172,4.1172,0,0,0-6.5143,3.3471,4.2171,4.2171,0,0,0,.0357.5255,4.0924,4.0924,0,0,0,.0873.4675.5668.5668,0,0,0,.5593.4754h19.794V29.36a.5652.5652,0,0,0,.5465-.423,4.13,4.13,0,0,0,.1-.517,4.2157,4.2157,0,0,0,.0357-.5264,4.1058,4.1058,0,0,0-1.2056-2.9083l-.0008-.0009L73.55,24.983l-.0012-.0012a4.1143,4.1143,0,0,0-5.3056-.4356Zm2.3964.3625a2.9739,2.9739,0,0,1,2.11.8719l.0023.0023a2.974,2.974,0,0,1,.8719,2.11,3.1757,3.1757,0,0,1-.0164.3351H54.7486a3.1689,3.1689,0,0,1-.0164-.3351A2.983,2.983,0,0,1,59.94,25.9a.5658.5658,0,0,0,.9692-.2413,3.3709,3.3709,0,0,1,6.5386,0,.5659.5659,0,0,0,.9754.2345,2.9605,2.9605,0,0,1,2.2167-.9848Z"/>

</g>

</svg>